<svg xmlns="http://www.w3.org/2000/svg" viewBox="0 0 345.6 102.2"><path d="M20.6 43.4l6 9.9-11.7 19.1H3l17.6-29zm33.3 29H42l-2.5-4.1-17-28.1 5.9-9.8 25.5 42zM100.9 51.8c0 4.2-1.2 8.2-3.6 11.6 0 .1-.1.1-.1.2-3.8 5.5-10.1 8.8-16.8 8.8H59.9V47.6l10.2 10.2v4.4h11c3.1-.2 5.9-1.8 7.7-4.4 0 0 0-.1.1-.1 1.2-1.7 1.8-3.7 1.8-5.8 0-2.1-.6-4.1-1.8-5.9-1.9-2.8-5.1-4.4-8.4-4.4H70.2v11.6L59.9 42.9V31.2h20.5c6.7 0 13 3.3 16.8 8.8 0 0 0 .1.1.1 2.4 3.5 3.6 7.5 3.6 11.7zM133.6 60.3l7.3 7.3-.7.6c-3.6 2.8-8 4.3-12.6 4.3-5.5 0-10.7-2.1-14.6-6-3.9-3.9-6-9.1-6-14.6 0-4.6 1.5-9 4.3-12.6l.6-.7 7.3 7.3-.4.6c-1 1.6-1.6 3.6-1.6 5.5 0 2.8 1.1 5.4 3 7.3 2 2 4.6 3 7.3 3 2 0 3.9-.6 5.5-1.6l.6-.4zm14.6-8.5c0 4.6-1.5 9-4.3 12.6l-.6.7-7.3-7.3.4-.6c1-1.6 1.6-3.6 1.6-5.5 0-2.8-1.1-5.4-3-7.3-2-2-4.6-3-7.3-3-2 0-3.9.6-5.5 1.6l-.6.4-7.3-7.3.7-.6c3.6-2.8 8-4.3 12.6-4.3 5.5 0 10.7 2.1 14.6 6 3.8 3.9 6 9.1 6 14.6zM188 43.4c0 2.7-.9 5.3-2.6 7.4-.3.4-.6.7-.9 1.1-2.3 2.3-5.3 3.5-8.5 3.5h-12.8l-9-9v-15H176c3.2 0 6.2 1.3 8.5 3.5 1.6 1.6 2.7 3.5 3.2 5.7.2.9.3 1.9.3 2.8zm-33.9 7.7l10.2 10.2v11.1h-10.2V51.1zm23.4-7.7c0-.3 0-.6-.1-.8-.1-.6-.5-1.2-.9-1.6-.7-.7-1.5-1-2.5-1h-9.6v1.4L170 47h4c.9 0 1.8-.4 2.5-1l.3-.3c.4-.7.7-1.5.7-2.3zM235.2 31.2v10.2h-15.5v15.2l-10.2-10.2v-5H194V31.2h41.2zM209.5 51l10.2 10.2v11.2h-10.2V51zM251.4 31.2v15.3l-10.2-10.2v-5.1h10.2zM241.2 41l10.2 10.2v21.3h-10.2V41zM284.1 60.3l7.3 7.3-.7.6c-3.6 2.8-8 4.3-12.6 4.3-5.5 0-10.7-2.1-14.6-6-3.9-3.9-6-9.1-6-14.6 0-4.6 1.5-9 4.3-12.6l.6-.7 7.3 7.3-.4.6c-1 1.6-1.6 3.6-1.6 5.5 0 2.8 1.1 5.4 3 7.3 2 2 4.6 3 7.3 3 2 0 3.9-.6 5.5-1.6l.6-.4zm14.5-8.5c0 4.6-1.5 9-4.3 12.6l-.6.7-7.3-7.3.4-.6c1-1.6 1.6-3.6 1.6-5.5 0-2.8-1.1-5.4-3-7.3-2-2-4.6-3-7.3-3-2 0-3.9.6-5.5 1.6l-.6.4-7.3-7.3.7-.6c3.6-2.8 8-4.3 12.6-4.3 5.5 0 10.7 2.1 14.6 6 3.9 3.9 6 9.1 6 14.6zM342.6 30v42.4H333l-.4-.4-11.2-11.2-6.5-6.5-10.2-10.2V31.2h1.6l.2.2 25.9 25.9v-17l.2-.2 10-10.1zm-38 18.7l10.2 10.2v13.5h-10.2V48.7z"/><circle cx="161.7" cy="6.6" r="4.9"/><path d="M158.6 9.2c-7.5 9.3-14.9 18.6-22.4 27.9-1 1.2.8 3 1.8 1.8 7.5-9.3 14.9-18.6 22.4-27.9 1-1.2-.7-3-1.8-1.8zM98.6 93.6c7.3-9.9 14.6-19.8 21.9-29.8 1-1.3-1.2-2.5-2.2-1.3-7.3 9.9-14.6 19.8-21.9 29.8-.9 1.4 1.3 2.6 2.2 1.3zM310.8 2.1c-2.7 0-4.9 2.2-4.9 4.9s2.2 4.9 4.9 4.9 4.9-2.2 4.9-4.9-2.2-4.9-4.9-4.9zm.1 7.8c-1.7 0-3-1.4-3-3 0-1.7 1.4-3 3-3 1.7 0 3 1.4 3 3 0 1.7-1.3 3-3 3z"/><g><path d="M307.4 9.6c-7.4 9.2-14.7 18.4-22.1 27.5-1 1.2.8 3 1.8 1.8 7.4-9.2 14.7-18.4 22.1-27.5.9-1.3-.8-3.1-1.8-1.8z"/></g><circle cx="244" cy="96" r="5.2"/><g><path d="M248.2 92.8c7.1-9.7 14.2-19.4 21.3-29 1-1.3-1.2-2.5-2.2-1.3-7.1 9.7-14.2 19.4-21.3 29-.9 1.4 1.2 2.6 2.2 1.3z"/></g><g><path d="M88.1 10.1l31.7 31.7c1.1 1.1 2.9-.6 1.8-1.8L89.9 8.3c-1.1-1.1-2.9.6-1.8 1.8z"/></g><circle cx="85.5" cy="5.8" r="5.2"/><path d="M94.8 91.7c-2.7 0-4.9 2.2-4.9 4.9s2.2 4.9 4.9 4.9 4.9-2.2 4.9-4.9-2.2-4.9-4.9-4.9zm.1 7.9c-1.7 0-3-1.4-3-3 0-1.7 1.4-3 3-3 1.7 0 3 1.4 3 3s-1.3 3-3 3z"/></svg>